# xmcd CD database file
#
# Track frame offsets:
#	150
#	17257
#	32976
#	49680
#	70477
#	89482
#	106541
#	127344
#	144254
#	164853
#	186652
#	205544
#	220590
#
# Disc length: 3239 seconds
#
# Revision: 13
# Processed by: cddbd v1.5.2PL0 Copyright (c) Steve Scherf et al.
# Submitted via: CDex 2.02
#
DISCID=bc0ca50d
DTITLE=Michalis Hatzigiannis - Akatallili skini
DYEAR=2004
DGENRE=Greek
TTITLE0=Akatallili skini
TTITLE1=Kryfa
TTITLE2=Oti ki an po
TTITLE3=Pou einai i agapi
TTITLE4=An isoun mazi mou
TTITLE5=Mi me oneirefteis
TTITLE6=Kosmima ths lypis
TTITLE7=Gia sena
TTITLE8=Kaneis
TTITLE9=S' epsaxa, s' echasa
TTITLE10=Chano ton elegcho
TTITLE11=Afta pou tha 'lega se sena
TTITLE12=O vythos sou
EXTD=YEAR: 2004
EXTT0=
EXTT1=
EXTT2=
EXTT3=
EXTT4=
EXTT5=
EXTT6=
EXTT7=
EXTT8=
EXTT9=
EXTT10=
EXTT11=
EXTT12=
PLAYORDER=
